<svg width="37" height="73" viewBox="0 0 37 73" fill="none" xmlns="http://www.w3.org/2000/svg">
<g clip-path="url(#clip0)">
<path d="M30.5366 50H5.53662V49.0741H17.5088V0.925923H5.53662V0H30.5366V0.925923H18.8144V49.0741H30.5366V50Z" fill="#F0E4E4"/>
<path d="M8.48063 69.9249L8.48302 69.6849L12.707 69.7272C13.619 69.7364 14.3407 69.5756 14.872 69.2449C15.4196 68.8984 15.6983 68.2291 15.7081 67.2371L15.7531 62.7251C15.4587 63.3622 14.9109 63.7407 14.1096 63.8607C13.3084 63.9807 12.3797 64.0354 11.3237 64.0248C10.7317 64.0188 10.1799 63.9973 9.6682 63.9602C9.17268 63.9072 8.73372 63.7988 8.35132 63.6349C7.98507 63.4552 7.6917 63.1883 7.47121 62.834C7.26672 62.4799 7.16751 61.9989 7.17357 61.3909L7.19462 59.2789C7.20068 58.6709 7.30955 58.1839 7.52122 57.818C7.74889 57.4523 8.05568 57.1753 8.44159 56.9872C8.82751 56.799 9.27678 56.6755 9.78942 56.6166C10.3181 56.5579 10.8784 56.5316 11.4704 56.5375C12.1104 56.5439 12.7101 56.5819 13.2694 56.6516C13.8289 56.7052 14.3157 56.8301 14.7298 57.0262C15.1439 57.2224 15.461 57.5136 15.6812 57.8999C15.9175 58.2703 16.0327 58.7595 16.0266 59.3675L15.9481 67.2395C15.9376 68.2955 15.6424 69.0206 15.0624 69.4148C14.4985 69.7932 13.7126 69.9773 12.7046 69.9672L8.48063 69.9249ZM11.3261 63.7848C11.8541 63.7901 12.3822 63.7874 12.9104 63.7767C13.4385 63.766 13.9113 63.6907 14.3287 63.5509C14.7462 63.411 15.0844 63.1904 15.3434 62.889C15.6186 62.5717 15.7591 62.1251 15.7648 61.5491L15.7866 59.3651C15.7924 58.7891 15.6769 58.3319 15.4403 57.9935C15.2198 57.6392 14.9103 57.3801 14.5119 57.2161C14.1297 57.0362 13.6748 56.9196 13.1473 56.8664C12.6197 56.8131 12.06 56.7834 11.468 56.7775C10.924 56.772 10.4037 56.7908 9.90727 56.8339C9.42679 56.877 9.00167 56.9848 8.63192 57.1571C8.26216 57.3294 7.97153 57.5905 7.76002 57.9404C7.54867 58.2743 7.4402 58.7213 7.43462 59.2813L7.41357 61.3933C7.40782 61.9693 7.50736 62.4183 7.71217 62.7404C7.93298 63.0627 8.21859 63.3056 8.56899 63.4691C8.91955 63.6166 9.33468 63.7088 9.81436 63.7456C10.2942 63.7664 10.7981 63.7795 11.3261 63.7848ZM20.0624 67.1127L20.133 60.0327C20.1378 59.5527 20.2142 59.1135 20.3622 58.7149C20.5102 58.3163 20.7615 57.9828 21.1162 57.7144C21.4711 57.4299 21.9533 57.2107 22.5629 57.0568C23.1885 56.9031 23.9653 56.8309 24.8933 56.8402C26.7493 56.8588 28.0023 57.1754 28.6522 57.79C29.3182 58.4047 29.6464 59.1841 29.637 60.1281L29.5664 67.2081C29.5569 68.1681 29.2131 68.9487 28.535 69.55C27.8731 70.1354 26.6141 70.4188 24.7581 70.4002C23.8301 70.3909 23.0549 70.3031 22.4325 70.1368C21.8261 69.9707 21.3483 69.7499 20.999 69.4744C20.6499 69.1828 20.4053 68.8364 20.2653 68.4349C20.1253 68.0335 20.0577 67.5927 20.0624 67.1127ZM24.8909 57.0802C23.1789 57.063 22.0002 57.3232 21.3548 57.8608C20.7094 58.3984 20.3821 59.1231 20.373 60.0351L20.3024 67.1151C20.2933 68.0271 20.6061 68.7584 21.2407 69.3088C21.8752 69.8592 23.0485 70.143 24.7605 70.1602C26.4725 70.1773 27.6592 69.9172 28.3207 69.3798C28.9821 68.8424 29.3173 68.1177 29.3264 67.2057L29.397 60.1257C29.406 59.2297 29.0851 58.5064 28.4346 57.9558C27.7841 57.3892 26.6029 57.0973 24.8909 57.0802Z" fill="#F0E4E4"/>
<path d="M8.48063 69.9249L8.08063 69.9208L8.07664 70.3208L8.47664 70.3249L8.48063 69.9249ZM8.48302 69.6849L8.48701 69.2849L8.08701 69.2808L8.08302 69.6808L8.48302 69.6849ZM14.872 69.2449L15.0834 69.5845L15.086 69.5829L14.872 69.2449ZM15.7531 62.7251L16.1531 62.7291L16.1717 60.8655L15.39 62.5573L15.7531 62.7251ZM14.1096 63.8607L14.0504 63.4651L14.0504 63.4651L14.1096 63.8607ZM9.6682 63.9602L9.62568 64.3582L9.63927 64.3591L9.6682 63.9602ZM8.35132 63.6349L8.17514 63.9941L8.18435 63.9986L8.19379 64.0026L8.35132 63.6349ZM7.47121 62.834L7.12462 63.0342L7.13161 63.0454L7.47121 62.834ZM7.52122 57.818L7.18143 57.6065L7.17495 57.6177L7.52122 57.818ZM8.44159 56.9872L8.61691 57.3467L8.61691 57.3467L8.44159 56.9872ZM9.78942 56.6166L9.74525 56.2191L9.74376 56.2192L9.78942 56.6166ZM13.2694 56.6516L13.22 57.0487L13.2313 57.0498L13.2694 56.6516ZM14.7298 57.0262L14.9011 56.6647L14.9011 56.6647L14.7298 57.0262ZM15.6812 57.8999L15.3337 58.098L15.3386 58.1066L15.344 58.115L15.6812 57.8999ZM15.0624 69.4148L15.2853 69.747L15.2873 69.7457L15.0624 69.4148ZM12.9104 63.7767L12.9022 63.3767L12.9022 63.3767L12.9104 63.7767ZM15.3434 62.889L15.0413 62.6269L15.0401 62.6283L15.3434 62.889ZM15.4403 57.9935L15.1007 58.2048L15.1063 58.2139L15.1124 58.2227L15.4403 57.9935ZM14.5119 57.2161L14.3416 57.578L14.3505 57.5822L14.3597 57.586L14.5119 57.2161ZM13.1473 56.8664L13.1071 57.2643L13.1071 57.2643L13.1473 56.8664ZM9.90727 56.8339L9.8727 56.4353L9.87143 56.4354L9.90727 56.8339ZM8.63192 57.1571L8.46293 56.7945L8.46293 56.7945L8.63192 57.1571ZM7.76002 57.9404L8.0981 58.1544L8.10236 58.1474L7.76002 57.9404ZM7.71217 62.7404L7.37442 62.9552L7.38219 62.9665L7.71217 62.7404ZM8.56899 63.4691L8.39984 63.8316L8.40678 63.8348L8.41385 63.8378L8.56899 63.4691ZM9.81436 63.7456L9.78375 64.1447L9.79705 64.1453L9.81436 63.7456ZM8.88063 69.9289L8.88302 69.6889L8.08302 69.6808L8.08063 69.9208L8.88063 69.9289ZM8.47903 70.0849L12.703 70.1272L12.711 69.3272L8.48701 69.2849L8.47903 70.0849ZM12.703 70.1272C13.6583 70.1368 14.4643 69.9698 15.0834 69.5845L14.6607 68.9053C14.217 69.1814 13.5798 69.3359 12.711 69.3272L12.703 70.1272ZM15.086 69.5829C15.8003 69.1308 16.0977 68.2927 16.1081 67.2411L15.3081 67.2331C15.2988 68.1654 15.0389 68.6659 14.6581 68.9069L15.086 69.5829ZM16.1081 67.2411L16.1531 62.7291L15.3531 62.7211L15.3081 67.2331L16.1081 67.2411ZM15.39 62.5573C15.1616 63.0516 14.7425 63.3615 14.0504 63.4651L14.1689 64.2563C15.0794 64.12 15.7559 63.6727 16.1163 62.8929L15.39 62.5573ZM14.0504 63.4651C13.2752 63.5812 12.3685 63.6352 11.3277 63.6248L11.3197 64.4248C12.3909 64.4355 13.3415 64.3802 14.1689 64.2563L14.0504 63.4651ZM11.3277 63.6248C10.7428 63.6189 10.1994 63.5976 9.69714 63.5612L9.63927 64.3591C10.1604 64.397 10.7206 64.4188 11.3197 64.4248L11.3277 63.6248ZM9.7107 63.5624C9.24723 63.5129 8.84821 63.4127 8.50884 63.2672L8.19379 64.0026C8.61923 64.1849 9.09814 64.3015 9.62571 64.3579L9.7107 63.5624ZM8.52749 63.2758C8.23008 63.1299 7.99269 62.9149 7.81082 62.6227L7.13161 63.0454C7.39072 63.4617 7.74006 63.7806 8.17514 63.9941L8.52749 63.2758ZM7.81761 62.634C7.66226 62.365 7.5679 61.9638 7.57357 61.3949L6.77357 61.3869C6.76712 62.034 6.87118 62.5949 7.12481 63.0341L7.81761 62.634ZM7.57357 61.3949L7.59462 59.2829L6.79462 59.2749L6.77357 61.3869L7.57357 61.3949ZM7.59462 59.2829C7.60028 58.7155 7.70222 58.304 7.86748 58.0183L7.17495 57.6177C6.91688 58.0638 6.80109 58.6263 6.79462 59.2749L7.59462 59.2829ZM7.86082 58.0294C8.04889 57.7273 8.29885 57.5018 8.61691 57.3467L8.26627 56.6276C7.81251 56.8488 7.44888 57.1772 7.18161 57.6066L7.86082 58.0294ZM8.61691 57.3467C8.95477 57.182 9.35866 57.0688 9.83508 57.0141L9.74376 56.2192C9.1949 56.2823 8.70024 56.416 8.26627 56.6276L8.61691 57.3467ZM9.83359 57.0142C10.3446 56.9575 10.8887 56.9317 11.4664 56.9375L11.4744 56.1375C10.868 56.1314 10.2915 56.1584 9.74525 56.2191L9.83359 57.0142ZM11.4664 56.9375C12.0932 56.9438 12.6776 56.981 13.22 57.0485L13.3188 56.2546C12.7425 56.1829 12.1275 56.1441 11.4744 56.1375L11.4664 56.9375ZM13.2313 57.0498C13.7547 57.0999 14.1947 57.2153 14.5586 57.3877L14.9011 56.6647C14.4368 56.4448 13.9031 56.3104 13.3076 56.2534L13.2313 57.0498ZM14.5586 57.3877C14.901 57.5499 15.1554 57.7853 15.3337 58.098L16.0287 57.7018C15.7666 57.242 15.3869 56.8949 14.9011 56.6647L14.5586 57.3877ZM15.344 58.115C15.5254 58.3994 15.6322 58.8043 15.6266 59.3635L16.4266 59.3715C16.4332 58.7146 16.3097 58.1412 16.0184 57.6847L15.344 58.115ZM15.6266 59.3635L15.5481 67.2355L16.3481 67.2435L16.4266 59.3715L15.6266 59.3635ZM15.5481 67.2355C15.5382 68.23 15.2621 68.7954 14.8375 69.084L15.2873 69.7457C16.0226 69.2458 16.337 68.361 16.3481 67.2435L15.5481 67.2355ZM14.8394 69.0827C14.3679 69.3991 13.6728 69.5769 12.7086 69.5672L12.7006 70.3672C13.7524 70.3778 14.6292 70.1873 15.2853 69.747L14.8394 69.0827ZM12.7086 69.5672L8.48462 69.5249L8.47664 70.3249L12.7006 70.3672L12.7086 69.5672ZM11.3221 64.1848C11.8542 64.1901 12.3863 64.1874 12.9185 64.1766L12.9022 63.3767C12.3781 63.3874 11.8541 63.39 11.3301 63.3848L11.3221 64.1848ZM12.9185 64.1766C13.4793 64.1652 13.9932 64.0851 14.4558 63.9302L14.2017 63.1716C13.8294 63.2963 13.3977 63.3667 12.9022 63.3767L12.9185 64.1766ZM14.4558 63.9302C14.9341 63.77 15.3359 63.5116 15.6468 63.1497L15.0401 62.6283C14.833 62.8692 14.5583 63.0521 14.2017 63.1716L14.4558 63.9302ZM15.6456 63.1511C16.0028 62.7394 16.1585 62.1888 16.1648 61.5531L15.3648 61.5451C15.3597 62.0614 15.2345 62.404 15.0413 62.6269L15.6456 63.1511ZM16.1648 61.5531L16.1866 59.3691L15.3866 59.3611L15.3648 61.5451L16.1648 61.5531ZM16.1866 59.3691C16.1929 58.7417 16.068 58.1932 15.7681 57.7642L15.1124 58.2227C15.2858 58.4705 15.3919 58.8364 15.3866 59.3611L16.1866 59.3691ZM15.7799 57.7821C15.5136 57.3542 15.1374 57.041 14.6642 56.8462L14.3597 57.586C14.6832 57.7192 14.926 57.9242 15.1007 58.2048L15.7799 57.7821ZM14.6822 56.8541C14.25 56.6508 13.7491 56.5251 13.1875 56.4684L13.1071 57.2643C13.6005 57.3142 14.0093 57.4217 14.3416 57.578L14.6822 56.8541ZM13.1875 56.4684C12.6466 56.4137 12.0747 56.3835 11.472 56.3775L11.464 57.1775C12.0453 57.1833 12.5929 57.2124 13.1071 57.2643L13.1875 56.4684ZM11.472 56.3775C10.9163 56.3719 10.3831 56.3911 9.8727 56.4353L9.94183 57.2324C10.4244 57.1906 10.9317 57.1722 11.464 57.1775L11.472 56.3775ZM9.87143 56.4354C9.35305 56.482 8.88154 56.5994 8.46293 56.7945L8.8009 57.5197C9.1218 57.3701 9.50052 57.272 9.9431 57.2323L9.87143 56.4354ZM8.46293 56.7945C8.02105 57.0004 7.67015 57.3158 7.41768 57.7335L8.10236 58.1474C8.27291 57.8652 8.50327 57.6584 8.8009 57.5197L8.46293 56.7945ZM7.42201 57.7265C7.15759 58.1442 7.04065 58.6724 7.03462 59.2773L7.83462 59.2853C7.83976 58.7702 7.93975 58.4044 8.09803 58.1544L7.42201 57.7265ZM7.03462 59.2773L7.01357 61.3893L7.81357 61.3973L7.83462 59.2853L7.03462 59.2773ZM7.01357 61.3893C7.00742 62.0059 7.11217 62.5423 7.37462 62.9551L8.04972 62.5258C7.90255 62.2943 7.80823 61.9327 7.81357 61.3973L7.01357 61.3893ZM7.38219 62.9665C7.64301 63.3472 7.9839 63.6375 8.39984 63.8316L8.73814 63.1066C8.45327 62.9737 8.22295 62.7782 8.04215 62.5143L7.38219 62.9665ZM8.41385 63.8378C8.81294 64.0057 9.27204 64.1052 9.78377 64.1445L9.84494 63.3468C9.39731 63.3124 9.02617 63.2275 8.72413 63.1004L8.41385 63.8378ZM9.79705 64.1453C10.2817 64.1663 10.7901 64.1794 11.3221 64.1848L11.3301 63.3848C10.8061 63.3795 10.3067 63.3666 9.83167 63.346L9.79705 64.1453ZM20.3622 58.7149L19.9872 58.5756L19.9872 58.5756L20.3622 58.7149ZM21.1162 57.7144L21.3577 58.0335L21.3664 58.0265L21.1162 57.7144ZM22.5629 57.0568L22.4674 56.6683L22.465 56.669L22.5629 57.0568ZM28.6522 57.79L28.3774 58.0806L28.3809 58.0839L28.6522 57.79ZM28.535 69.55L28.8 69.8496L28.8004 69.8493L28.535 69.55ZM22.4325 70.1368L22.3269 70.5226L22.3293 70.5233L22.4325 70.1368ZM20.999 69.4744L20.7425 69.7815L20.7513 69.7884L20.999 69.4744ZM21.3548 57.8608L21.0988 57.5534L21.0988 57.5534L21.3548 57.8608ZM21.2407 69.3088L20.9786 69.611L20.9786 69.611L21.2407 69.3088ZM28.3207 69.3798L28.0684 69.0693L28.0684 69.0693L28.3207 69.3798ZM28.4346 57.9558L28.1718 58.2574L28.1762 58.2611L28.4346 57.9558ZM20.4624 67.1168L20.533 60.0367L19.733 60.0287L19.6624 67.1087L20.4624 67.1168ZM20.533 60.0367C20.5374 59.597 20.6072 59.2042 20.7372 58.8542L19.9872 58.5756C19.8212 59.0227 19.7382 59.5084 19.733 60.0287L20.533 60.0367ZM20.7372 58.8542C20.8574 58.5304 21.0607 58.2581 21.3577 58.0333L20.8748 57.3954C20.4623 57.7076 20.1629 58.1023 19.9872 58.5756L20.7372 58.8542ZM21.3664 58.0265C21.6629 57.7888 22.0869 57.5896 22.6609 57.4447L22.465 56.669C21.8197 56.8319 21.2793 57.071 20.866 57.4022L21.3664 58.0265ZM22.6584 57.4453C23.2407 57.3022 23.9815 57.2311 24.8893 57.2402L24.8973 56.4402C23.9491 56.4306 23.1364 56.504 22.4674 56.6683L22.6584 57.4453ZM24.8893 57.2402C25.7981 57.2493 26.5415 57.3314 27.1271 57.4794C27.7149 57.6279 28.1194 57.8366 28.3774 58.0806L28.9271 57.4993C28.5352 57.1287 27.9882 56.8718 27.323 56.7037C26.6557 56.5351 25.8445 56.4497 24.8973 56.4402L24.8893 57.2402ZM28.3809 58.0839C28.9599 58.6184 29.2454 59.2877 29.237 60.1241L30.037 60.1321C30.0475 59.0804 29.6764 58.191 28.9236 57.496L28.3809 58.0839ZM29.237 60.1241L29.1664 67.2041L29.9664 67.2121L30.037 60.1321L29.237 60.1241ZM29.1664 67.2041C29.1579 68.0586 28.8576 68.7293 28.2696 69.2507L28.8004 69.8493C29.5685 69.1681 29.9558 68.2775 29.9664 67.2121L29.1664 67.2041ZM28.27 69.2503C28.0074 69.4825 27.5984 69.6781 27.0065 69.8113C26.4171 69.944 25.6715 70.0093 24.7621 70.0002L24.7542 70.8002C25.7008 70.8097 26.5126 70.7426 27.1822 70.5918C27.8492 70.4417 28.4006 70.2028 28.8 69.8496L28.27 69.2503ZM24.7621 70.0002C23.8543 69.9911 23.115 69.9051 22.5357 69.7503L22.3293 70.5233C22.9949 70.7011 23.806 70.7907 24.7542 70.8002L24.7621 70.0002ZM22.5382 69.751C21.9637 69.5936 21.5404 69.3919 21.2467 69.1603L20.7513 69.7884C21.1562 70.1079 21.6886 70.3478 22.3269 70.5226L22.5382 69.751ZM21.2554 69.1673C20.9578 68.9188 20.7575 68.6315 20.643 68.3032L19.8876 68.5666C20.0531 69.0412 20.342 69.4469 20.7426 69.7814L21.2554 69.1673ZM20.643 68.3032C20.52 67.9506 20.4581 67.5565 20.4624 67.1168L19.6624 67.1087C19.6573 67.629 19.7305 68.1163 19.8876 68.5666L20.643 68.3032ZM24.8949 56.6802C23.1709 56.6629 21.8623 56.9175 21.0988 57.5534L21.6108 58.1681C22.1382 57.7289 23.187 57.4631 24.8869 57.4802L24.8949 56.6802ZM21.0988 57.5534C20.3548 58.1731 19.9832 59.0132 19.973 60.0311L20.773 60.0392C20.7811 59.2331 21.064 58.6236 21.6108 58.1681L21.0988 57.5534ZM19.973 60.0311L19.9024 67.1111L20.7024 67.1192L20.773 60.0392L19.973 60.0311ZM19.9024 67.1111C19.8923 68.1291 20.2471 68.9765 20.9786 69.611L21.5028 69.0066C20.9651 68.5402 20.6944 67.9252 20.7024 67.1192L19.9024 67.1111ZM20.9786 69.611C21.7292 70.2621 23.0325 70.5429 24.7565 70.5602L24.7645 69.7602C23.0646 69.7431 22.0212 69.4563 21.5028 69.0066L20.9786 69.611ZM24.7565 70.5602C26.4823 70.5775 27.7951 70.3222 28.5729 69.6903L28.0684 69.0693C27.5234 69.5122 26.4627 69.7772 24.7645 69.7602L24.7565 70.5602ZM28.5729 69.6903C29.3339 69.072 29.7163 68.2312 29.7264 67.2097L28.9264 67.2017C28.9184 68.0041 28.6303 68.6128 28.0684 69.0693L28.5729 69.6903ZM29.7264 67.2097L29.797 60.1297L28.997 60.1216L28.9264 67.2017L29.7264 67.2097ZM29.797 60.1297C29.8071 59.1216 29.4396 58.2824 28.693 57.6504L28.1762 58.2611C28.7306 58.7304 29.0048 59.3377 28.997 60.1216L29.797 60.1297ZM28.6973 57.6542C27.9318 56.9874 26.6222 56.6975 24.8949 56.6802L24.8869 57.4802C26.5837 57.4972 27.6365 57.7911 28.1718 58.2574L28.6973 57.6542Z" fill="#f3f3f3"/>
</g>
<defs>
<clipPath id="clip0">
<rect width="36.9819" height="72.3684" fill="white"/>
</clipPath>
</defs>
</svg>
